<?xml version="1.0" encoding="utf-8"?>
<!-- Uploaded to: SVG Repo, www.svgrepo.com, Generator: SVG Repo Mixer Tools -->
<svg width="800px" height="800px" viewBox="0 0 1024 1024" class="icon"  version="1.1" xmlns="http://www.w3.org/2000/svg"><path d="M993.763 493.538v35c0 13.33-6.04 26.664-18.135 37.136-140.149 121.421-280.35 242.795-420.49 364.219-11.813 10.238-25.813 15.501-42.454 15.501v-35c16.644 0 30.641-5.265 42.454-15.501 140.142-121.424 280.335-242.802 420.49-364.218 12.095-10.473 18.135-23.801 18.135-37.137z" fill="#D34F43" /><path d="M30.239 528.367v-3.5-1.75-3.5-3.5-1.75-3.5-3.5-1.75-3.5-3.5-1.75-3.5c0 14.707 6.701 29.313 19.039 40.019 138.449 120.064 277.049 239.996 415.56 360.021 13.002 11.26 28.74 16.466 47.854 16.994v35c-19.108-0.528-34.852-5.734-47.854-16.994C326.325 808.382 187.725 688.45 49.277 568.386c-12.338-10.705-19.038-25.312-19.038-40.019z" fill="#D34F43" /><path d="M510.786 76.601c16.263 0 32.546 5.362 44.946 16.097 139.949 121.188 279.9 242.376 419.818 363.586 24.24 20.995 24.295 53.413 0.079 74.396C835.48 652.103 695.28 773.478 555.141 894.898c-11.814 10.238-25.813 15.502-42.451 15.502-19.109-0.528-34.854-5.734-47.854-16.994C326.322 773.382 187.722 653.45 49.273 533.386c-19.579-16.987-24.959-43.81-11.895-65.251 3.92-6.438 8.67-11.829 14.465-16.849 138.109-119.552 276.18-239.134 414.262-358.719 12.298-10.64 28.48-15.966 44.681-15.966z" fill="#F2B266" /><path d="M570.376 308.75h0.372c10.808 0.095 21.835 5.946 26.982 12.402 0.381 0.486 0.646 0.846 0.894 1.209 3.63 5.385 5.187 10.499 5.177 15.302-0.019 8.005-4.387 15.14-10.781 21.197-0.767 0.727-2.338 1.144-3.548 1.144-8.189 0.017-16.379 0.028-24.568 0.031-7.279 0.007-14.563 0.008-21.844 0.008h-1.722c-6.764 0-13.528-0.001-20.292-0.004l-21.105-0.011c-0.38 0-0.774-0.175-1.608-0.367 1.048-1.039 1.833-1.902 2.729-2.679 14.347-12.431 28.479-25.063 43.195-37.162 4.737-3.885 10.695-6.993 16.683-9.349 0.11-0.044 0.224-0.088 0.333-0.129 0.119-0.043 0.238-0.088 0.357-0.13 2.802-0.998 5.766-1.452 8.746-1.462z" fill="#EBCA9C" /><path d="M389.12 353.723v-16.8c0 1.512 0.072 3.037 0.213 4.569 0.584 6.2 2.5 12.309 3.83 18.569v16.8c-1.33-6.26-3.246-12.369-3.83-18.568a48.876 48.876 0 0 1-0.213-4.57z" fill="#D0723A" /><path d="M389.12 353.723v-16.8c0 1.512 0.072 3.037 0.213 4.569 0.584 6.2 2.5 12.309 3.83 18.569v16.8c-1.33-6.26-3.246-12.369-3.83-18.568a48.876 48.876 0 0 1-0.213-4.57z" fill="#D0723A" /><path d="M393.163 360.061v16.8c-1.33-6.26-3.246-12.369-3.83-18.568a49.53 49.53 0 0 1-0.213-4.569v-16.8c0 1.512 0.072 3.037 0.213 4.569 0.584 6.198 2.5 12.308 3.83 18.568" fill="#D0723A" /><path d="M631.102 336.954v16.8c0 6.618-1.469 13.265-4.113 19.815-0.383 0.954-0.767 1.913-1.311 3.292v-16.8c0.544-1.377 0.926-2.338 1.311-3.292 2.644-6.552 4.113-13.2 4.113-19.815z" fill="#D0723A" /><path d="M631.102 336.954v16.8c0 6.618-1.469 13.265-4.113 19.815-0.383 0.954-0.767 1.913-1.311 3.292v-16.8c0.544-1.377 0.926-2.338 1.311-3.292 2.644-6.552 4.113-13.2 4.113-19.815z" fill="#D0723A" /><path d="M631.102 336.954v16.8c0 0.911-0.029 1.827-0.085 2.741v-16.8c0.057-0.918 0.085-1.83 0.085-2.741" fill="#D0723A" /><path d="M631.02 339.695v16.8c-0.345 5.708-1.752 11.426-4.03 17.074-0.381 0.954-0.767 1.913-1.311 3.292v-16.8c0.544-1.377 0.927-2.338 1.311-3.292 2.278-5.648 3.685-11.367 4.03-17.074" fill="#D0723A" /><path d="M449.521 308.801l0.393 0.002c8.22 0.097 16.245 3.291 24.223 9.66 5.594 4.467 10.816 9.267 16.652 14.308-5.454 4.724-10.615 9.189-15.765 13.662-3.063 2.654-6.724 4.975-9.041 8.048-0.087 0.115-0.175 0.225-0.261 0.334a15.586 15.586 0 0 1-1.674 1.81c-2.8 2.57-6.147 3.555-10.139 3.626-0.16 0.003-0.32 0.003-0.481 0.003a34.999 34.999 0 0 1-2.618-0.109 115.178 115.178 0 0 0-4.649-0.272c-1.034-0.036-2.074-0.06-3.116-0.067H442.034a83.504 83.504 0 0 0-3.436 0.088c-1.307 0.06-2.605 0.149-3.897 0.279-0.363 0.034-0.718 0.06-1.063 0.072-0.174 0.006-0.343 0.012-0.51 0.012-0.317 0-0.525-0.004-0.732-0.013-4.201-0.181-6.906-2.192-9.539-5.24-4.629-5.349-6.818-11.503-6.796-17.54 0.037-10.063 6.229-19.804 17.563-24.963a48.615 48.615 0 0 1 2.321-0.982c0.234-0.092 0.472-0.187 0.707-0.272 4.271-1.597 8.474-2.415 12.629-2.444l0.24-0.002z" fill="#EBCA9C" /><path d="M502.278 383.018v57.799H310.596v-57.799h191.682zM713.404 383.027v57.869H529.433v-57.869h183.971z" fill="#EAC86F" /><path d="M323.105 463.995v16.8h-30.863c-7.388 0-8.294-0.76-8.294-7.034v-16.8c0 6.274 0.905 7.034 8.294 7.034h30.863z" fill="#D0723A" /><path d="M323.105 463.995v16.8h-30.863c-7.388 0-8.294-0.76-8.294-7.034v-16.8c0 6.274 0.905 7.034 8.294 7.034h30.863z" fill="#D0723A" /><path d="M323.105 463.995v16.8h-30.863c-7.388 0-8.294-0.76-8.294-7.034v-16.8c0 6.274 0.905 7.034 8.294 7.034h30.863" fill="#D0723A" /><path d="M740.044 457.692v16.8c0 5.161-1.326 6.293-7.333 6.303-2.591 0.003-5.174 0.003-7.788 0.003-5.22 0-10.545-0.003-16.177-0.003v-16.8c5.629 0 10.954 0.003 16.177 0.003 2.611 0 5.197 0 7.788-0.003 6.004-0.01 7.333-1.143 7.333-6.303z" fill="#D0723A" /><path d="M740.044 457.692v16.8c0 5.161-1.326 6.293-7.333 6.303-2.591 0.003-5.174 0.003-7.788 0.003-5.22 0-10.545-0.003-16.177-0.003v-16.8c5.629 0 10.954 0.003 16.177 0.003 2.611 0 5.197 0 7.788-0.003 6.004-0.01 7.333-1.143 7.333-6.303z" fill="#D0723A" /><path d="M740.044 457.692v16.8c0 0.462-0.01 0.89-0.03 1.29v-16.8c0.02-0.4 0.03-0.829 0.03-1.29M740.012 458.981v16.8c-0.094 1.57-0.389 2.674-1.03 3.438v-16.8c0.641-0.764 0.936-1.867 1.03-3.438M738.98 462.418v16.8a3.047 3.047 0 0 1-0.725 0.63v-16.8a3.06 3.06 0 0 0 0.725-0.63" fill="#D0723A" /><path d="M738.257 463.048v16.8c-0.24 0.154-0.51 0.286-0.813 0.398v-16.8c0.303-0.112 0.573-0.243 0.813-0.398M737.443 463.446v16.8a7.89 7.89 0 0 1-1.646 0.38v-16.8a7.738 7.738 0 0 0 1.646-0.38" fill="#D0723A" /><path d="M735.798 463.828v16.8c-0.856 0.116-1.882 0.166-3.09 0.167-2.591 0.003-5.174 0.003-7.788 0.003-5.22 0-10.545-0.003-16.176-0.003v-16.8c5.628 0 10.953 0.003 16.176 0.003 2.611 0 5.197 0 7.788-0.003 1.211-0.003 2.232-0.051 3.09-0.167" fill="#D0723A" /><path d="M682.188 464.22v71.26H529.506v-71.26h152.682z" fill="#EBCA9C" /><path d="M732.95 360.061c5.751 0 7.091 1.163 7.091 6.086 0.013 30.51 0.013 61.027 0 91.547 0 5.161-1.326 6.293-7.333 6.303-2.591 0.002-5.174 0.002-7.788 0.002l-16.176-0.002v195.925c0 5.849-1.069 6.799-7.631 6.799h-370.44c-6.442 0-7.57-0.968-7.57-6.497V469.372v-5.377h-30.864c-7.388 0-8.296-0.76-8.296-7.036 0-30.256 0-60.514 0.009-90.768 0-4.987 1.311-6.129 7.045-6.129H393.16c-1.331-6.26-3.246-12.369-3.83-18.569-2.278-24.329 13.778-46.403 39.877-53.268 7.331-1.924 14.514-2.943 21.469-2.943 14.938-0.001 28.834 4.7 40.984 15.245 5.91 5.115 11.696 10.334 18.356 16.237 6.967-6.233 13.274-12.083 19.827-17.712 10.359-8.908 25.431-13.744 40.857-13.744 22.939 0 46.668 10.691 56.892 34.574 5.168 12.082 4.334 24.651-0.606 36.891-0.381 0.954-0.767 1.913-1.311 3.292h5.141c34.043-0.004 68.082-0.004 102.134-0.004z m-50.784 283.691v-84.845H529.442v84.845h152.724m-179.788 0V558.9H349.677v84.852h152.701m-191.78-202.934H502.28v-57.799H310.598v57.799m371.59 94.661v-71.26H529.504v71.26h152.684m-332.632-71.171v71.067h152.795v-71.067H349.556m363.848-23.413v-57.866H529.431v57.866h183.973M499.94 360.034l21.104 0.011c6.764 0.003 13.528 0.006 20.292 0.006h1.718a22736.195 22736.195 0 0 0 46.415-0.04c1.21 0 2.78-0.418 3.549-1.142 6.394-6.058 10.767-13.193 10.78-21.199 0.01-4.805-1.546-9.919-5.176-15.304a18.373 18.373 0 0 0-0.795-1.084c-5.247-6.583-16.273-12.432-27.081-12.527l-0.271-0.001c-3.08 0.012-6.043 0.465-8.852 1.468-0.119 0.042-0.237 0.087-0.355 0.13l-0.335 0.129c-5.985 2.357-11.942 5.462-16.681 9.349-14.717 12.1-28.85 24.732-43.195 37.162-0.896 0.777-1.682 1.641-2.729 2.68 0.837 0.188 1.229 0.362 1.612 0.362m-66.317-47.532c-11.333 5.162-17.526 14.904-17.563 24.965-0.022 6.038 2.174 12.191 6.797 17.54 2.633 3.048 5.337 5.058 9.539 5.24a14.663 14.663 0 0 0 1.243 0c0.347-0.014 0.699-0.036 1.063-0.072a73.94 73.94 0 0 1 3.897-0.28 87 87 0 0 1 3.434-0.088h1.012c1.039 0.007 2.078 0.03 3.114 0.068 1.558 0.058 3.112 0.15 4.649 0.271a33.404 33.404 0 0 0 3.1 0.106c3.995-0.072 7.337-1.056 10.139-3.626a15.39 15.39 0 0 0 1.673-1.809c0.087-0.109 0.173-0.221 0.259-0.334 2.318-3.073 5.979-5.394 9.041-8.05 5.149-4.471 10.313-8.939 15.765-13.662-5.838-5.039-11.055-9.838-16.652-14.306-7.979-6.372-16.003-9.563-24.224-9.662l-0.391-0.001-0.245 0.001c-4.152 0.029-8.355 0.845-12.63 2.443-0.234 0.088-0.47 0.179-0.707 0.27-0.359 0.145-0.721 0.29-1.078 0.441-0.408 0.176-0.82 0.356-1.235 0.545" fill="#E09944" /><path d="M502.351 464.308v71.067H349.557v-71.067h152.794z" fill="#EBCA9C" /><path d="M502.379 558.9v84.851H349.678V558.9h152.701z" fill="#FBF8D1" /><path d="M682.167 558.909v84.845H529.444v-84.845h152.723z" fill="#FBF8D1" /><path d="M708.746 659.919v16.801c0 5.85-1.068 6.797-7.63 6.797H330.677c-6.442 0-7.571-0.966-7.571-6.494v-16.801c0 5.526 1.13 6.495 7.571 6.495h370.439c6.564 0.004 7.63-0.948 7.63-6.798z" fill="#D0723A" /><path d="M708.746 659.919v16.801c0 5.85-1.068 6.797-7.63 6.797H330.677c-6.442 0-7.571-0.966-7.571-6.494v-16.801c0 5.526 1.13 6.495 7.571 6.495h370.439c6.564 0.004 7.63-0.948 7.63-6.798z" fill="#D0723A" /><path d="M708.746 659.919v16.801c0 0.639-0.012 1.22-0.043 1.747v-16.8c0.031-0.528 0.043-1.109 0.043-1.748M708.703 661.667v16.8c-0.1 1.658-0.379 2.79-1.025 3.556v-16.801c0.644-0.765 0.926-1.897 1.025-3.555M707.678 665.222v16.801c-0.19 0.226-0.415 0.42-0.672 0.585v-16.801c0.257-0.166 0.48-0.36 0.672-0.585M707.003 665.807v16.801a3.97 3.97 0 0 1-0.768 0.372v-16.8a4.06 4.06 0 0 0 0.768-0.373M706.235 666.18v16.8c-0.453 0.166-0.98 0.284-1.604 0.371V666.55c0.624-0.086 1.151-0.205 1.604-0.37" fill="#D0723A" /><path d="M704.636 666.546v16.8c-0.948 0.13-2.104 0.171-3.52 0.171H330.677c-6.442 0-7.571-0.966-7.571-6.494v-16.801c0 5.526 1.13 6.495 7.571 6.495h370.439c1.414 0.004 2.572-0.041 3.52-0.171" fill="#D0723A" /></svg>